<svg xmlns="http://www.w3.org/2000/svg" viewBox="0 0 64 64" role="img" aria-label="Uova e olio">
  <rect width="64" height="64" rx="14" fill="#254d33"/>
  <path d="M43.5 12.5c-9.3 1.3-15.8 7.7-15.3 15.5 7.8.6 14.3-5.7 15.3-15.5Z" fill="#7ea15d"/>
  <path d="M30 30c5.2-2.9 9.4-7.2 12.6-12.9" fill="none" stroke="#fffaf1" stroke-width="3" stroke-linecap="round"/>
  <path d="M28.3 47.2c6.8 0 12-4.6 12-11.5 0-7.7-5.2-17.5-12-17.5s-12 9.8-12 17.5c0 6.9 5.2 11.5 12 11.5Z" fill="#fffaf1"/>
  <path d="M28.3 42.5c3.7 0 6.6-2.5 6.6-6.5 0-4.4-2.9-9.8-6.6-9.8s-6.6 5.4-6.6 9.8c0 4 2.9 6.5 6.6 6.5Z" fill="#f7cb5c"/>
</svg>
